<?xml version="1.0" standalone="no"?>
<!DOCTYPE svg PUBLIC "-//W3C//DTD SVG 20010904//EN"
 "http://www.w3.org/TR/2001/REC-SVG-20010904/DTD/svg10.dtd">
<svg version="1.0" xmlns="http://www.w3.org/2000/svg"
 width="358.000000pt" height="358.000000pt" viewBox="0 0 358.000000 358.000000"
 preserveAspectRatio="xMidYMid meet">
<metadata>
Created by potrace 1.11, written by Peter Selinger 2001-2013
</metadata>
<g transform="translate(0.000000,358.000000) scale(0.100000,-0.100000)"
fill="#000000" stroke="none">
<path d="M1879 3424 c-84 -36 -226 -94 -314 -131 -88 -36 -243 -101 -345 -143
-102 -43 -225 -95 -275 -115 -131 -54 -500 -207 -502 -209 -2 -2 -46 -283 -88
-571 -31 -217 -107 -728 -138 -929 l-11 -78 35 -32 c19 -17 150 -131 290 -252
140 -122 328 -286 419 -365 90 -79 236 -207 325 -283 88 -77 182 -159 208
-182 39 -35 52 -42 70 -35 12 5 159 70 327 146 324 146 679 305 1030 463 118
52 218 98 222 101 8 7 27 123 64 381 13 96 40 276 59 400 101 667 116 772 113
789 -2 10 -93 92 -202 182 -110 90 -296 244 -415 342 -495 408 -695 572 -706
579 -6 4 -81 -22 -166 -58z m-283 -495 c231 -42 375 -252 320 -468 -18 -71
-72 -180 -114 -231 l-28 -33 -65 74 c-104 118 -102 112 -71 172 36 69 38 174
4 228 -30 49 -81 73 -142 67 -56 -6 -91 -29 -121 -82 -21 -37 -28 -76 -46
-253 -3 -35 -9 -63 -13 -63 -5 0 -28 19 -52 43 -39 37 -68 86 -93 152 -6 17
-10 14 -27 -22 -10 -24 -22 -69 -27 -100 l-8 -58 -21 46 c-60 129 -25 306 82
413 107 107 251 146 422 115z m-143 -522 c14 -23 71 -94 127 -156 56 -62 110
-127 121 -145 30 -50 22 -16 -10 39 -16 28 -61 86 -101 130 -87 96 -94 112
-80 181 14 67 26 75 33 24 8 -65 41 -119 143 -235 106 -121 144 -187 144 -253
0 -28 7 -53 20 -69 11 -14 17 -29 14 -34 -11 -18 15 -8 45 17 36 30 38 22 15
-55 -14 -49 -83 -141 -105 -141 -5 0 -9 13 -9 29 0 59 -26 82 -107 96 -41 6
-41 7 -27 33 19 36 18 49 -5 62 -26 13 -234 14 -226 0 3 -5 16 -10 28 -10 42
0 48 -12 31 -57 -19 -47 -14 -73 14 -73 17 0 19 -6 15 -44 -5 -42 -4 -45 21
-52 15 -3 25 -11 23 -17 -5 -16 -98 -64 -137 -71 l-34 -6 27 28 c15 15 27 31
27 35 0 4 -17 7 -37 7 -21 0 -33 4 -27 8 20 12 54 76 54 100 0 76 -86 132
-172 113 -33 -8 -36 -7 -29 8 14 25 72 77 105 93 l29 15 -39 13 c-21 7 -43 16
-48 20 -12 12 88 40 143 41 44 1 45 1 16 10 -58 19 -201 -9 -255 -50 l-24 -19
37 -7 c48 -9 55 -22 16 -30 -39 -9 -121 -46 -176 -80 l-42 -25 10 32 c29 103
-2 148 -105 148 -57 1 -60 2 -41 16 11 9 66 38 123 64 95 45 102 51 102 78 0
18 -13 43 -36 70 -34 40 -35 42 -12 42 13 0 43 -5 67 -11 24 -5 45 -8 47 -7 1
2 -1 22 -6 44 -5 22 -6 53 -2 68 l7 27 31 -43 c18 -25 73 -74 131 -115 55 -40
110 -87 122 -105 11 -18 21 -30 21 -26 0 21 -25 64 -62 104 -42 46 -43 49 -42
113 1 66 17 133 38 160 9 11 12 3 17 -37 4 -28 18 -71 32 -95z m1007 -303
c-46 -40 -27 -50 64 -34 91 15 150 9 225 -25 58 -27 156 -97 164 -118 3 -9
-17 -11 -79 -9 -80 3 -197 -17 -218 -38 -5 -5 -26 0 -49 13 -90 47 -208 29
-291 -44 -51 -45 -150 -172 -193 -248 -15 -28 -31 -50 -34 -48 -4 1 -35 28
-69 60 l-63 59 75 72 c129 125 295 219 408 233 27 3 47 10 44 15 -6 9 -39 5
-129 -14 -68 -14 -180 -67 -237 -111 -27 -20 -48 -33 -48 -28 0 5 18 36 41 70
42 63 122 141 173 168 l28 15 -16 -23 c-40 -58 -3 -65 69 -13 57 41 122 73
148 74 15 0 12 -6 -13 -26z m-1460 -118 c0 -8 -9 -52 -20 -97 -11 -46 -18 -85
-16 -87 2 -2 26 13 53 34 44 34 203 118 209 111 2 -2 -5 -21 -16 -43 -10 -21
-22 -52 -26 -67 l-7 -29 51 26 c50 25 94 32 126 20 13 -5 3 -20 -43 -69 -32
-35 -74 -94 -92 -131 -28 -56 -34 -80 -37 -153 -4 -74 -1 -95 18 -139 43 -99
147 -163 242 -148 90 14 193 83 266 175 l39 49 84 -84 83 -83 -48 -71 c-63
-92 -182 -202 -259 -240 -98 -47 -177 -63 -287 -57 -157 8 -280 68 -373 183
-60 75 -75 79 -79 22 l-3 -43 -34 53 c-91 143 -103 349 -31 533 11 27 20 54
20 59 0 16 -32 11 -53 -7 -19 -17 -19 -17 -13 7 22 77 69 151 141 219 73 69
105 86 105 57z m606 -158 c11 -9 46 -23 79 -32 63 -16 85 -35 85 -72 0 -53 17
-72 67 -80 26 -3 58 -12 71 -18 12 -6 81 -68 154 -136 72 -69 140 -130 152
-137 63 -37 146 10 146 83 0 36 0 37 20 19 57 -51 66 -184 16 -249 l-27 -36
63 0 c153 1 227 126 134 225 -25 26 -29 35 -16 35 40 0 114 -35 159 -76 178
-160 59 -426 -192 -428 -66 -1 -67 -1 -47 -18 25 -20 111 -48 149 -48 l26 -1
-23 -19 c-74 -61 -244 -80 -337 -36 -88 40 -165 153 -165 239 0 19 -1 19 -19
3 -36 -32 -45 -129 -17 -175 18 -28 -22 -7 -59 33 -55 57 -69 109 -55 208 18
127 15 134 -136 289 -73 75 -138 148 -144 163 -5 15 -10 46 -10 69 0 45 -14
70 -73 130 -31 32 -37 45 -36 80 0 32 2 37 8 22 5 -11 17 -27 27 -37z"/>
<path d="M1610 2080 c0 -28 32 -81 55 -92 37 -17 41 -3 12 41 -27 41 -67 71
-67 51z"/>
</g>
</svg>
